<svg id="Capa_1" enable-background="new 0 0 512 512" height="512" viewBox="0 0 512 512" width="512" xmlns="http://www.w3.org/2000/svg"><g><g><circle cx="438.706" cy="73.294" fill="#80cb8e" r="65.794"/><path d="m451.093 137.924c-4.01.77-8.15 1.17-12.38 1.17-36.34 0-65.8-29.46-65.8-65.8 0-36.33 29.46-65.79 65.8-65.79 4.23 0 8.37.4 12.38 1.17-30.42 5.78-53.42 32.52-53.42 64.62 0 32.109 23 58.84 53.42 64.63z" fill="#6ec17d"/><path d="m428.744 389.515h-10.925v-61.823-50.025-108.582c0-65.387-53.007-118.394-118.393-118.394h-86.852c-65.387 0-118.393 53.007-118.393 118.394v108.582 50.025 61.823h-10.925c-20.577 0-37.257 16.681-37.257 37.258 0 20.577 16.681 37.258 37.257 37.258h116.684 112.12 116.684c20.577 0 37.257-16.681 37.257-37.258 0-20.577-16.68-37.258-37.257-37.258z" fill="#ffc250"/><path d="m300.889 50.713c-64.71.78-116.93 53.48-116.93 118.37v157.277s93.981 137.673 104.271 137.673h-204.981c-10.29 0-19.6-4.17-26.34-10.91-6.74-6.75-10.91-16.06-10.91-26.35 0-20.57 16.68-37.25 37.25-37.25h10.93v-220.44c0-65.38 53.01-118.39 118.39-118.39h86.85c.49 0 .98 0 1.47.02z" fill="#ebb044"/><path d="m376.11 504.5h-240.22l5.86-28.54c4.82-23.5 23.13-41.36 45.85-46.17 3.99-.85 8.12-1.29 12.34-1.29h112.12c4.21 0 8.34.44 12.33 1.29 22.72 4.81 41.04 22.67 45.86 46.17z" fill="#dd636e"/><path d="m222.696 428.5c-2.5 0-4.95.44-7.32 1.29-13.5 4.81-24.37 22.67-27.24 46.17l-3.48 28.54h-48.77l5.86-28.54c4.82-23.5 23.13-41.36 45.85-46.17 3.99-.85 8.12-1.29 12.34-1.29z" fill="#da4a54"/><path d="m289.23 373v55.5c0 18.35-14.88 33.23-33.23 33.23-18.36 0-33.24-14.88-33.24-33.23v-55.5z" fill="#ffcbbe"/><path d="m266.853 459.918c-3.4 1.17-7.05 1.81-10.85 1.81-18.36 0-33.24-14.88-33.24-33.23v-55.5h21.7v55.5c0 14.56 9.36 26.93 22.39 31.42z" fill="#eaac9d"/><path d="m222.76 373h66.47v51.13h-66.47z" fill="#eaac9d"/><path d="m394.825 229.09v76.26c0 55.88-45.3 101.19-101.19 101.19h-75.29c-55.88 0-101.19-45.3-101.19-101.19v-75.39c17.23-.5 40.94-3.44 66.48-8.63 52.34-10.64 112.42-30.75 140.37-58.7 0 0 27.65 56.5 70.82 66.46z" fill="#ffcbbe"/><path d="m284.825 406.54h-66.48c-55.88 0-101.19-45.3-101.19-101.19v-75.39c17.23-.5 40.94-3.44 66.48-8.63v84.02c0 55.88 45.3 101.19 101.19 101.19z" fill="#eaac9d"/><g fill="#e490b7"><ellipse cx="337.778" cy="312.541" rx="22.726" ry="13.819"/><ellipse cx="174.217" cy="312.541" rx="22.726" ry="13.819"/></g><circle cx="102.222" cy="116.556" fill="#dd636e" r="94.722"/><path d="m114.6 210.476c-4.05.53-8.19.8-12.38.8-52.31 0-94.72-42.41-94.72-94.72 0-52.32 42.41-94.73 94.72-94.73 4.19 0 8.33.27 12.38.8-46.46 6.06-82.34 45.8-82.34 93.93 0 48.12 35.88 87.86 82.34 93.92z" fill="#da4a54"/></g><g><path d="m512 73.29c0-40.412-32.878-73.29-73.29-73.29-36.723 0-67.219 27.143-72.489 62.417-19.371-12.174-42.271-19.227-66.791-19.227h-86.86c-11.787 0-23.398 1.619-34.586 4.816-18.717-20.67-45.75-33.676-75.764-33.676-56.364 0-102.22 45.86-102.22 102.23 0 20.74 6.174 40.703 17.855 57.732 2.343 3.416 7.009 4.286 10.427 1.942 3.416-2.343 4.285-7.011 1.942-10.427-9.959-14.52-15.224-31.549-15.224-49.247 0-48.099 39.127-87.23 87.22-87.23s87.22 39.131 87.22 87.23c0 48.093-39.126 87.22-87.22 87.22-19.398 0-37.746-6.223-53.059-17.996-3.283-2.525-7.992-1.909-10.517 1.375s-1.909 7.993 1.375 10.517c13.806 10.614 29.715 17.364 46.662 19.926v164.418h-3.42c-24.681 0-44.76 20.075-44.76 44.75 0 11.96 4.655 23.201 13.111 31.657 8.462 8.449 19.702 13.103 31.649 13.103h51.809c-.244.964-.467 1.936-.669 2.917l-5.861 28.544c-.453 2.208.11 4.502 1.535 6.249s3.558 2.76 5.812 2.76h240.224c2.254 0 4.388-1.013 5.812-2.76s1.988-4.041 1.535-6.249l-5.861-28.544c-.201-.981-.425-1.954-.669-2.917h36.814c4.142 0 7.5-3.358 7.5-7.5s-3.358-7.5-7.5-7.5h-42.631c-11.406-21.348-33.944-35.532-59.052-35.532h-15.325v-7.005c58.505-1.646 105.593-49.748 105.593-108.643v-76.26c0-3.493-2.411-6.523-5.814-7.308-39.125-9.026-65.51-61.92-65.77-62.449-1.065-2.175-3.115-3.703-5.504-4.101-2.387-.397-4.823.382-6.536 2.095-17.408 17.407-51.53 34.024-96.081 46.788-36.083 10.338-77.564 17.54-105.681 18.348-4.057.117-7.285 3.439-7.285 7.497v75.39c0 58.901 47.096 107.006 105.607 108.644v7.004h-15.325c-25.108 0-47.647 14.184-59.052 35.532h-57.626c-7.945 0-15.42-3.096-21.046-8.713-5.619-5.619-8.713-13.094-8.713-21.047 0-16.404 13.35-29.75 29.76-29.75h10.92c4.142 0 7.5-3.358 7.5-7.5v-170.751c.18.001.359.011.54.011 56.364 0 102.22-45.855 102.22-102.22 0-20.492-6.065-39.592-16.487-55.608 8.027-1.822 16.267-2.762 24.617-2.762h86.86c61.145 0 110.89 49.745 110.89 110.89v220.44c0 4.142 3.358 7.5 7.5 7.5h10.92c7.945 0 15.42 3.096 21.046 8.714 5.619 5.618 8.713 13.089 8.713 21.036 0 11.912-7.073 22.647-18.02 27.349-3.806 1.635-5.566 6.045-3.931 9.851 1.22 2.841 3.987 4.542 6.895 4.542.987 0 1.992-.196 2.957-.611 16.462-7.071 27.1-23.216 27.1-41.131 0-11.954-4.655-23.192-13.111-31.647-8.462-8.45-19.702-13.103-31.649-13.103h-3.42v-212.94c0-8.275-.811-16.362-2.342-24.195 5.129 1.124 10.384 1.705 15.732 1.705 40.411 0 73.289-32.882 73.289-73.3zm-281.737 340.75h51.47v14.458c0 14.19-11.544 25.735-25.735 25.735s-25.735-11.544-25.735-25.735zm-105.608-108.69v-68.225c52.369-3.188 151.558-25.051 197.332-62.587 9.446 16.038 32.527 49.618 65.338 60.249v70.564c0 51.661-42.029 93.69-93.69 93.69h-75.29c-51.66-.001-93.69-42.03-93.69-93.691zm75.283 130.648h16.029c3.532 18.89 20.132 33.235 40.031 33.235s36.499-14.345 40.031-33.235h16.029c24.528 0 45.912 17.439 50.845 41.466l4.01 19.536h-221.831l4.011-19.536c4.933-24.027 26.317-41.466 50.845-41.466zm180.485-363.212c.273-31.909 26.309-57.786 58.287-57.786 32.141 0 58.29 26.149 58.29 58.29 0 32.147-26.149 58.3-58.29 58.3-7.014 0-13.825-1.226-20.296-3.638-7.513-21.674-20.791-40.675-37.991-55.166z"/><path d="m242.478 297.07h27.039c4.142 0 7.5-3.358 7.5-7.5s-3.358-7.5-7.5-7.5h-27.039c-4.142 0-7.5 3.358-7.5 7.5s3.358 7.5 7.5 7.5z"/><path d="m242.478 344.98h7.039c4.142 0 7.5-3.358 7.5-7.5s-3.358-7.5-7.5-7.5h-7.039c-4.142 0-7.5 3.358-7.5 7.5s3.358 7.5 7.5 7.5z"/><path d="m184.771 248.447c-.458 0-.929.042-1.36.12h-15.022c-4.273 0-7.75 3.477-7.75 7.75s3.477 7.75 7.75 7.75h3.708c-.364 2.027-.548 4.128-.548 6.25 0 12.059 5.932 21.87 13.222 21.87s13.222-9.811 13.222-21.87-5.931-21.87-13.222-21.87z"/><path d="m327.224 292.187c7.291 0 13.222-9.811 13.222-21.87 0-2.121-.185-4.222-.549-6.25h4.708c4.273 0 7.75-3.477 7.75-7.75s-3.477-7.75-7.75-7.75l-15.979.004c-.473-.083-.945-.124-1.402-.124-7.291 0-13.222 9.811-13.222 21.87s5.932 21.87 13.222 21.87z"/><path d="m60.063 158.715c1.464 1.464 3.384 2.197 5.303 2.197s3.839-.732 5.303-2.197l31.552-31.552 31.552 31.552c1.464 1.464 3.384 2.197 5.303 2.197s3.839-.732 5.303-2.197c2.929-2.929 2.929-7.678 0-10.606l-31.552-31.552 31.552-31.552c2.929-2.929 2.929-7.677 0-10.606s-7.678-2.929-10.606 0l-31.552 31.552-31.551-31.553c-2.929-2.929-7.678-2.929-10.606 0-2.929 2.929-2.929 7.677 0 10.606l31.552 31.552-31.552 31.552c-2.93 2.929-2.93 7.678-.001 10.607z"/><path d="m442.941 108.202 29.768-59.558c1.852-3.705.35-8.21-3.355-10.062-3.706-1.851-8.21-.349-10.062 3.356l-25.115 50.249-17.789-17.788c-2.929-2.929-7.678-2.929-10.606 0-2.929 2.929-2.929 7.677 0 10.606l25.147 25.147c1.417 1.418 3.33 2.197 5.303 2.197.399 0 .802-.032 1.203-.097 2.379-.387 4.428-1.893 5.506-4.05z"/></g></g></svg>